<svg width="380" height="200" viewBox="0 0 380 200" fill="none" xmlns="http://www.w3.org/2000/svg">
<rect width="380" height="200" rx="32" fill="#3F3D56"/>
<g clip-path="url(#clip0_2_234)">
<path d="M257.581 109.002C257.581 109.002 252.758 111.685 254.146 114.739C255.534 117.793 275.247 115.294 275.247 115.294C275.247 115.294 273.859 111.129 271.36 110.296C268.862 109.463 257.581 109.002 257.581 109.002Z" fill="#3B82F6"/>
<path d="M255.701 109.717C256.67 109.087 257.748 108.642 258.879 108.403C262.652 107.489 266.603 107.612 270.312 108.76L270.244 108.705C271.824 109.539 273.211 110.695 274.316 112.1L255.701 109.717Z" fill="#CCCCCC"/>
<path d="M277.058 122.852C276.991 123.848 276.924 124.844 276.858 125.839C276.766 127.923 276.539 129.999 276.178 132.053C275.839 133.771 275.3 135.476 274.337 136.939C273.373 138.4 271.943 139.608 270.25 140.052C269.21 140.301 268.129 140.325 267.079 140.121C265.099 138.997 263.758 140.435 265.735 141.898C266.184 142.23 266.65 142.537 267.132 142.817L268.029 156.663L251.37 153.054L254.621 134.635C254.123 134.182 253.668 133.685 253.261 133.15C251.398 130.676 250.756 127.452 250.878 124.359C251.003 121.263 251.828 118.245 252.647 115.261C252.856 114.451 253.108 113.653 253.402 112.87C253.766 113.02 254.135 113.156 254.51 113.27C256.906 113.997 259.452 114.056 261.956 114.053C266.413 114.05 270.863 113.876 275.309 113.531C276.33 115.213 276.95 117.107 277.122 119.067C277.193 120.329 277.172 121.593 277.058 122.852V122.852Z" fill="#CCCCCC"/>
<path d="M205.808 160.438L231.455 162.715L231.729 162.74V53.3077C231.638 53.2438 231.546 53.18 231.455 53.1161C226.11 49.3775 220.328 46.3062 214.238 43.9704L212.927 62.0453L212.808 63.7L211.511 81.625L211.111 87.139L205.855 159.799L205.808 160.438Z" fill="#E6E6E6"/>
<path d="M142.385 51.2697C142.202 51.3863 142.019 51.5029 141.835 51.6251V162.74L142.385 162.69L167.754 160.438L167.707 159.799L162.451 87.139L162.051 81.6249L160.754 63.7L160.635 62.0452L159.261 43.0902C153.334 45.1446 147.67 47.89 142.385 51.2697V51.2697Z" fill="#E6E6E6"/>
<path d="M141.835 51.6251C141.466 51.8639 141.097 52.1082 140.733 52.3553V164.256C140.733 167.052 142.391 169.395 144.606 169.992C144.968 170.09 145.342 170.139 145.717 170.139H228.123C228.497 170.14 228.869 170.09 229.231 169.992C230.054 169.763 230.801 169.316 231.391 168.698C232.516 167.495 233.131 165.903 233.107 164.256V54.3016C232.651 53.9657 232.193 53.6325 231.729 53.3076C231.638 53.2438 231.546 53.1799 231.455 53.1161V164.256C231.455 164.616 231.412 164.975 231.327 165.325C230.935 166.977 229.644 168.187 228.123 168.187H145.717C143.879 168.187 142.385 166.424 142.385 164.256V51.2697C142.202 51.3863 142.019 51.5029 141.835 51.6251Z" fill="#E6E6E6"/>
<path d="M232.28 62.0463H141.558V63.7008H232.28V62.0463Z" fill="#E6E6E6"/>
<path d="M204.495 40.9412C203.945 40.8052 203.395 40.6774 202.84 40.558V85.4842H204.495V40.9412Z" fill="#E6E6E6"/>
<path d="M171 40C170.447 40.1027 169.894 40.2082 169.345 40.3221V85.4842H171V40Z" fill="#E6E6E6"/>
<path d="M123.772 167.243C123.771 168.193 123.953 169.133 124.307 170.014C124.444 170.356 124.606 170.686 124.793 171.002C125.035 171.415 125.316 171.804 125.632 172.163C126.329 172.958 127.189 173.595 128.152 174.031C129.115 174.467 130.161 174.693 131.218 174.692H239.864C241.839 174.692 243.733 173.908 245.13 172.511C246.526 171.115 247.311 169.221 247.311 167.246C247.311 165.271 246.526 163.377 245.13 161.98C243.733 160.584 241.839 159.799 239.864 159.799H131.218C129.244 159.801 127.352 160.586 125.956 161.982C124.56 163.377 123.774 165.269 123.772 167.243Z" fill="#E6E6E6"/>
<path d="M141.558 87.1396L231.729 87.1396V81.6246L141.558 81.6246V87.1396Z" fill="#E6E6E6"/>
<path d="M190.504 83.0034H182.783C182.783 82.605 182.862 82.2106 183.014 81.8426C183.167 81.4746 183.39 81.1402 183.672 80.8585C183.953 80.5769 184.288 80.3534 184.656 80.201C185.024 80.0486 185.418 79.9701 185.816 79.9701H187.471C188.275 79.9701 189.047 80.2897 189.616 80.8585C190.185 81.4274 190.504 82.1989 190.504 83.0034V83.0034H190.504Z" fill="#E6E6E6"/>
<path d="M87 171.497C89.412 174.355 92.0208 177.041 94.8075 179.535H284.324C287.111 177.041 289.72 174.355 292.132 171.497H87Z" fill="#3F3D56"/>
<path d="M138.409 144.618V173.093H158.358V144.618C158.359 144.413 158.293 144.213 158.172 144.048C158.05 143.883 157.879 143.762 157.684 143.701C157.591 143.671 157.495 143.656 157.398 143.657H139.373C139.246 143.657 139.121 143.681 139.004 143.73C138.887 143.778 138.781 143.848 138.692 143.938C138.602 144.027 138.531 144.133 138.483 144.249C138.434 144.366 138.409 144.491 138.409 144.618ZM146.194 154.402C146.2 153.841 146.426 153.304 146.825 152.909C147.224 152.514 147.763 152.292 148.324 152.292C148.885 152.292 149.424 152.514 149.823 152.909C150.222 153.304 150.448 153.841 150.454 154.402V157.706C150.451 158.269 150.225 158.808 149.826 159.205C149.427 159.602 148.887 159.825 148.324 159.825C147.761 159.825 147.221 159.602 146.822 159.205C146.423 158.808 146.197 158.269 146.194 157.706V154.402Z" fill="#2F2E41"/>
<path d="M138.348 172.182V174.928C138.349 175.071 138.405 175.207 138.505 175.308C138.606 175.409 138.742 175.466 138.884 175.467H157.883C158.026 175.466 158.162 175.409 158.263 175.308C158.363 175.207 158.419 175.071 158.419 174.928V172.182H138.348Z" fill="#3F3D56"/>
<path d="M107.027 101.715V153.708C107.027 154.37 107.291 155.006 107.759 155.474C108.228 155.943 108.863 156.206 109.526 156.207H186.573C187.235 156.206 187.871 155.943 188.339 155.474C188.808 155.006 189.071 154.37 189.072 153.708V101.715C189.07 101.053 188.806 100.419 188.338 99.9513C187.869 99.4834 187.235 99.2203 186.573 99.2194H109.526C108.864 99.2203 108.229 99.4834 107.761 99.9513C107.292 100.419 107.028 101.053 107.027 101.715V101.715Z" fill="#3F3D56"/>
<path d="M108.834 102.362V153.066C108.835 153.42 108.976 153.76 109.226 154.01C109.476 154.26 109.816 154.401 110.17 154.402H185.931C186.285 154.401 186.625 154.26 186.875 154.01C187.125 153.76 187.266 153.42 187.267 153.066V102.362C187.267 102.008 187.126 101.668 186.876 101.417C186.625 101.166 186.286 101.025 185.931 101.024H110.17C109.815 101.025 109.476 101.166 109.225 101.417C108.975 101.668 108.834 102.008 108.834 102.362V102.362Z" fill="#3B82F6"/>
<path d="M124.283 176.114C124.36 176.211 124.458 176.289 124.569 176.342C124.681 176.395 124.803 176.423 124.927 176.422H170C170.123 176.422 170.245 176.394 170.356 176.341C170.467 176.288 170.565 176.211 170.643 176.115C170.721 176.019 170.776 175.908 170.805 175.788C170.834 175.668 170.836 175.543 170.811 175.423L170.111 172.099C170.082 171.964 170.02 171.838 169.929 171.732C169.839 171.627 169.724 171.546 169.595 171.497C169.501 171.46 169.401 171.441 169.3 171.441H125.624C125.523 171.441 125.423 171.46 125.329 171.497C125.2 171.546 125.085 171.627 124.994 171.732C124.904 171.838 124.842 171.964 124.813 172.099L124.113 175.423C124.088 175.543 124.091 175.668 124.12 175.787C124.149 175.907 124.205 176.019 124.283 176.114Z" fill="#2F2E41"/>
<path d="M167.727 172.873H168.845C168.919 172.873 168.98 172.812 168.98 172.737V172.175C168.98 172.1 168.919 172.04 168.845 172.04H167.727C167.653 172.04 167.592 172.1 167.592 172.175V172.737C167.592 172.812 167.653 172.873 167.727 172.873Z" fill="#3F3D56"/>
<path d="M164.951 172.873H166.068C166.143 172.873 166.204 172.812 166.204 172.737V172.175C166.204 172.1 166.143 172.04 166.068 172.04H164.951C164.876 172.04 164.815 172.1 164.815 172.175V172.737C164.815 172.812 164.876 172.873 164.951 172.873Z" fill="#3F3D56"/>
<path d="M162.175 172.873H163.292C163.367 172.873 163.427 172.812 163.427 172.737V172.175C163.427 172.1 163.367 172.04 163.292 172.04H162.175C162.1 172.04 162.039 172.1 162.039 172.175V172.737C162.039 172.812 162.1 172.873 162.175 172.873Z" fill="#3F3D56"/>
<path d="M159.398 172.873H160.515C160.59 172.873 160.651 172.812 160.651 172.737V172.175C160.651 172.1 160.59 172.04 160.515 172.04H159.398C159.323 172.04 159.263 172.1 159.263 172.175V172.737C159.263 172.812 159.323 172.873 159.398 172.873Z" fill="#3F3D56"/>
<path d="M156.622 172.873H157.739C157.814 172.873 157.874 172.812 157.874 172.737V172.175C157.874 172.1 157.814 172.04 157.739 172.04H156.622C156.547 172.04 156.486 172.1 156.486 172.175V172.737C156.486 172.812 156.547 172.873 156.622 172.873Z" fill="#3F3D56"/>
<path d="M153.845 172.873H154.962C155.037 172.873 155.098 172.812 155.098 172.737V172.175C155.098 172.1 155.037 172.04 154.962 172.04H153.845C153.77 172.04 153.71 172.1 153.71 172.175V172.737C153.71 172.812 153.77 172.873 153.845 172.873Z" fill="#3F3D56"/>
<path d="M151.069 172.873H152.186C152.261 172.873 152.321 172.812 152.321 172.737V172.175C152.321 172.1 152.261 172.04 152.186 172.04H151.069C150.994 172.04 150.933 172.1 150.933 172.175V172.737C150.933 172.812 150.994 172.873 151.069 172.873Z" fill="#3F3D56"/>
<path d="M148.292 172.873H149.409C149.484 172.873 149.545 172.812 149.545 172.737V172.175C149.545 172.1 149.484 172.04 149.409 172.04H148.292C148.217 172.04 148.157 172.1 148.157 172.175V172.737C148.157 172.812 148.217 172.873 148.292 172.873Z" fill="#3F3D56"/>
<path d="M145.516 172.873H146.633C146.708 172.873 146.768 172.812 146.768 172.737V172.175C146.768 172.1 146.708 172.04 146.633 172.04H145.516C145.441 172.04 145.38 172.1 145.38 172.175V172.737C145.38 172.812 145.441 172.873 145.516 172.873Z" fill="#3F3D56"/>
<path d="M142.739 172.873H143.856C143.931 172.873 143.992 172.812 143.992 172.737V172.175C143.992 172.1 143.931 172.04 143.856 172.04H142.739C142.664 172.04 142.604 172.1 142.604 172.175V172.737C142.604 172.812 142.664 172.873 142.739 172.873Z" fill="#3F3D56"/>
<path d="M139.963 172.873H141.08C141.155 172.873 141.215 172.812 141.215 172.737V172.175C141.215 172.1 141.155 172.04 141.08 172.04H139.963C139.888 172.04 139.827 172.1 139.827 172.175V172.737C139.827 172.812 139.888 172.873 139.963 172.873Z" fill="#3F3D56"/>
<path d="M137.186 172.873H138.303C138.378 172.873 138.439 172.812 138.439 172.737V172.175C138.439 172.1 138.378 172.04 138.303 172.04H137.186C137.111 172.04 137.051 172.1 137.051 172.175V172.737C137.051 172.812 137.111 172.873 137.186 172.873Z" fill="#3F3D56"/>
<path d="M134.41 172.873H135.527C135.602 172.873 135.662 172.812 135.662 172.737V172.175C135.662 172.1 135.602 172.04 135.527 172.04H134.41C134.335 172.04 134.274 172.1 134.274 172.175V172.737C134.274 172.812 134.335 172.873 134.41 172.873Z" fill="#3F3D56"/>
<path d="M131.633 172.873H132.75C132.825 172.873 132.886 172.812 132.886 172.737V172.175C132.886 172.1 132.825 172.04 132.75 172.04H131.633C131.558 172.04 131.498 172.1 131.498 172.175V172.737C131.498 172.812 131.558 172.873 131.633 172.873Z" fill="#3F3D56"/>
<path d="M128.857 172.873H129.974C130.049 172.873 130.109 172.812 130.109 172.737V172.175C130.109 172.1 130.049 172.04 129.974 172.04H128.857C128.782 172.04 128.721 172.1 128.721 172.175V172.737C128.721 172.812 128.782 172.873 128.857 172.873Z" fill="#3F3D56"/>
<path d="M126.08 172.873H127.197C127.272 172.873 127.333 172.812 127.333 172.737V172.175C127.333 172.1 127.272 172.04 127.197 172.04H126.08C126.005 172.04 125.945 172.1 125.945 172.175V172.737C125.945 172.812 126.005 172.873 126.08 172.873Z" fill="#3F3D56"/>
<path d="M167.76 174.261H168.877C168.952 174.261 169.013 174.2 169.013 174.125V173.563C169.013 173.489 168.952 173.428 168.877 173.428H167.76C167.685 173.428 167.625 173.489 167.625 173.563V174.125C167.625 174.2 167.685 174.261 167.76 174.261Z" fill="#3F3D56"/>
<path d="M164.984 174.261H166.101C166.176 174.261 166.237 174.2 166.237 174.125V173.563C166.237 173.489 166.176 173.428 166.101 173.428H164.984C164.909 173.428 164.848 173.489 164.848 173.563V174.125C164.848 174.2 164.909 174.261 164.984 174.261Z" fill="#3F3D56"/>
<path d="M162.207 174.261H163.324C163.399 174.261 163.46 174.2 163.46 174.125V173.563C163.46 173.489 163.399 173.428 163.324 173.428H162.207C162.132 173.428 162.072 173.489 162.072 173.563V174.125C162.072 174.2 162.132 174.261 162.207 174.261Z" fill="#3F3D56"/>
<path d="M159.431 174.261H160.548C160.623 174.261 160.684 174.2 160.684 174.125V173.563C160.684 173.489 160.623 173.428 160.548 173.428H159.431C159.356 173.428 159.295 173.489 159.295 173.563V174.125C159.295 174.2 159.356 174.261 159.431 174.261Z" fill="#3F3D56"/>
<path d="M156.654 174.261H157.772C157.846 174.261 157.907 174.2 157.907 174.125V173.563C157.907 173.489 157.846 173.428 157.772 173.428H156.654C156.58 173.428 156.519 173.489 156.519 173.563V174.125C156.519 174.2 156.58 174.261 156.654 174.261Z" fill="#3F3D56"/>
<path d="M153.878 174.261H154.995C155.07 174.261 155.131 174.2 155.131 174.125V173.563C155.131 173.489 155.07 173.428 154.995 173.428H153.878C153.803 173.428 153.742 173.489 153.742 173.563V174.125C153.742 174.2 153.803 174.261 153.878 174.261Z" fill="#3F3D56"/>
<path d="M151.101 174.261H152.219C152.293 174.261 152.354 174.2 152.354 174.125V173.563C152.354 173.489 152.293 173.428 152.219 173.428H151.101C151.027 173.428 150.966 173.489 150.966 173.563V174.125C150.966 174.2 151.027 174.261 151.101 174.261Z" fill="#3F3D56"/>
<path d="M148.325 174.261H149.442C149.517 174.261 149.578 174.2 149.578 174.125V173.563C149.578 173.489 149.517 173.428 149.442 173.428H148.325C148.25 173.428 148.189 173.489 148.189 173.563V174.125C148.189 174.2 148.25 174.261 148.325 174.261Z" fill="#3F3D56"/>
<path d="M145.548 174.261H146.666C146.74 174.261 146.801 174.2 146.801 174.125V173.563C146.801 173.489 146.74 173.428 146.666 173.428H145.548C145.474 173.428 145.413 173.489 145.413 173.563V174.125C145.413 174.2 145.474 174.261 145.548 174.261Z" fill="#3F3D56"/>
<path d="M142.772 174.261H143.889C143.964 174.261 144.025 174.2 144.025 174.125V173.563C144.025 173.489 143.964 173.428 143.889 173.428H142.772C142.697 173.428 142.636 173.489 142.636 173.563V174.125C142.636 174.2 142.697 174.261 142.772 174.261Z" fill="#3F3D56"/>
<path d="M139.996 174.261H141.113C141.188 174.261 141.248 174.2 141.248 174.125V173.563C141.248 173.489 141.188 173.428 141.113 173.428H139.996C139.921 173.428 139.86 173.489 139.86 173.563V174.125C139.86 174.2 139.921 174.261 139.996 174.261Z" fill="#3F3D56"/>
<path d="M137.219 174.261H138.336C138.411 174.261 138.472 174.2 138.472 174.125V173.563C138.472 173.489 138.411 173.428 138.336 173.428H137.219C137.144 173.428 137.084 173.489 137.084 173.563V174.125C137.084 174.2 137.144 174.261 137.219 174.261Z" fill="#3F3D56"/>
<path d="M134.443 174.261H135.56C135.635 174.261 135.695 174.2 135.695 174.125V173.563C135.695 173.489 135.635 173.428 135.56 173.428H134.443C134.368 173.428 134.307 173.489 134.307 173.563V174.125C134.307 174.2 134.368 174.261 134.443 174.261Z" fill="#3F3D56"/>
<path d="M131.666 174.261H132.783C132.858 174.261 132.919 174.2 132.919 174.125V173.563C132.919 173.489 132.858 173.428 132.783 173.428H131.666C131.591 173.428 131.531 173.489 131.531 173.563V174.125C131.531 174.2 131.591 174.261 131.666 174.261Z" fill="#3F3D56"/>
<path d="M128.89 174.261H130.007C130.082 174.261 130.142 174.2 130.142 174.125V173.563C130.142 173.489 130.082 173.428 130.007 173.428H128.89C128.815 173.428 128.754 173.489 128.754 173.563V174.125C128.754 174.2 128.815 174.261 128.89 174.261Z" fill="#3F3D56"/>
<path d="M126.113 174.261H127.23C127.305 174.261 127.366 174.2 127.366 174.125V173.563C127.366 173.489 127.305 173.428 127.23 173.428H126.113C126.038 173.428 125.978 173.489 125.978 173.563V174.125C125.978 174.2 126.038 174.261 126.113 174.261Z" fill="#3F3D56"/>
<path d="M144.716 175.927H155.55C155.625 175.927 155.686 175.866 155.686 175.791V175.229C155.686 175.154 155.625 175.094 155.55 175.094H144.716C144.641 175.094 144.58 175.154 144.58 175.229V175.791C144.58 175.866 144.641 175.927 144.716 175.927Z" fill="#3F3D56"/>
<path d="M113.977 108.009H184.867C184.94 108.007 185.01 107.977 185.062 107.924C185.114 107.871 185.142 107.801 185.142 107.727C185.142 107.653 185.114 107.582 185.062 107.53C185.01 107.477 184.94 107.447 184.867 107.445H113.977C113.903 107.447 113.833 107.477 113.781 107.53C113.73 107.582 113.701 107.653 113.701 107.727C113.701 107.801 113.73 107.871 113.781 107.924C113.833 107.977 113.903 108.007 113.977 108.009V108.009Z" fill="#3F3D56"/>
<path d="M180.041 106.006C180.954 106.006 181.693 105.25 181.693 104.317C181.693 103.384 180.954 102.628 180.041 102.628C179.129 102.628 178.389 103.384 178.389 104.317C178.389 105.25 179.129 106.006 180.041 106.006Z" fill="#3F3D56"/>
<path d="M174.334 106.006C175.246 106.006 175.986 105.25 175.986 104.317C175.986 103.384 175.246 102.628 174.334 102.628C173.421 102.628 172.682 103.384 172.682 104.317C172.682 105.25 173.421 106.006 174.334 106.006Z" fill="#3F3D56"/>
<path d="M168.626 106.006C169.539 106.006 170.279 105.25 170.279 104.317C170.279 103.384 169.539 102.628 168.626 102.628C167.714 102.628 166.974 103.384 166.974 104.317C166.974 105.25 167.714 106.006 168.626 106.006Z" fill="#3F3D56"/>
<path d="M117.111 103.354C117.111 103.394 117.118 103.433 117.133 103.47C117.149 103.507 117.171 103.541 117.199 103.569C117.227 103.597 117.26 103.62 117.297 103.635C117.334 103.651 117.374 103.659 117.414 103.659H121.467C121.547 103.657 121.624 103.624 121.68 103.567C121.736 103.509 121.767 103.432 121.767 103.352C121.767 103.272 121.736 103.195 121.68 103.138C121.624 103.08 121.547 103.047 121.467 103.045H117.414C117.333 103.046 117.255 103.079 117.199 103.137C117.142 103.195 117.11 103.273 117.111 103.354V103.354Z" fill="#3F3D56"/>
<path d="M117.111 104.506C117.111 104.546 117.118 104.585 117.133 104.622C117.149 104.659 117.171 104.693 117.199 104.721C117.227 104.75 117.26 104.772 117.297 104.788C117.334 104.803 117.374 104.811 117.414 104.811H121.467C121.547 104.81 121.624 104.776 121.68 104.719C121.736 104.662 121.767 104.585 121.767 104.504C121.767 104.424 121.736 104.347 121.68 104.29C121.624 104.233 121.547 104.199 121.467 104.198H117.414C117.333 104.199 117.255 104.232 117.199 104.289C117.142 104.347 117.11 104.425 117.111 104.506V104.506Z" fill="#3F3D56"/>
<path d="M117.111 105.655C117.11 105.736 117.142 105.814 117.199 105.872C117.255 105.93 117.333 105.963 117.414 105.964H121.467C121.547 105.962 121.624 105.929 121.68 105.871C121.736 105.814 121.767 105.737 121.767 105.657C121.767 105.577 121.736 105.5 121.68 105.442C121.624 105.385 121.547 105.352 121.467 105.35H117.414C117.374 105.35 117.334 105.358 117.297 105.374C117.26 105.389 117.227 105.412 117.199 105.44C117.171 105.468 117.149 105.502 117.133 105.539C117.118 105.576 117.111 105.615 117.111 105.655V105.655Z" fill="#3F3D56"/>
<path d="M118.364 114.56H116.907C116.465 114.56 116.107 114.918 116.107 115.36C116.107 115.802 116.465 116.16 116.907 116.16H118.364C118.805 116.16 119.163 115.802 119.163 115.36C119.163 114.918 118.805 114.56 118.364 114.56Z" fill="#E6E6E6"/>
<path d="M135.023 114.56H133.566C133.124 114.56 132.766 114.918 132.766 115.36C132.766 115.802 133.124 116.16 133.566 116.16H135.023C135.464 116.16 135.822 115.802 135.822 115.36C135.822 114.918 135.464 114.56 135.023 114.56Z" fill="#E6E6E6"/>
<path d="M139.743 114.56H138.286C137.844 114.56 137.486 114.918 137.486 115.36C137.486 115.802 137.844 116.16 138.286 116.16H139.743C140.184 116.16 140.542 115.802 140.542 115.36C140.542 114.918 140.184 114.56 139.743 114.56Z" fill="#E6E6E6"/>
<path d="M130.491 114.427H121.438C120.997 114.427 120.639 114.785 120.639 115.227C120.639 115.668 120.997 116.026 121.438 116.026H130.491C130.933 116.026 131.291 115.668 131.291 115.227C131.291 114.785 130.933 114.427 130.491 114.427Z" fill="#E6E6E6"/>
<path d="M152.703 114.427H143.65C143.209 114.427 142.851 114.785 142.851 115.227C142.851 115.668 143.209 116.026 143.65 116.026H152.703C153.145 116.026 153.503 115.668 153.503 115.227C153.503 114.785 153.145 114.427 152.703 114.427Z" fill="#E6E6E6"/>
<path d="M122.806 118.17H121.349C120.908 118.17 120.55 118.528 120.55 118.969C120.55 119.411 120.908 119.769 121.349 119.769H122.806C123.248 119.769 123.606 119.411 123.606 118.969C123.606 118.528 123.248 118.17 122.806 118.17Z" fill="#E6E6E6"/>
<path d="M139.465 118.17H138.008C137.567 118.17 137.209 118.528 137.209 118.969C137.209 119.411 137.567 119.769 138.008 119.769H139.465C139.906 119.769 140.264 119.411 140.264 118.969C140.264 118.528 139.906 118.17 139.465 118.17Z" fill="#E6E6E6"/>
<path d="M144.185 118.17H142.728C142.287 118.17 141.929 118.528 141.929 118.969C141.929 119.411 142.287 119.769 142.728 119.769H144.185C144.627 119.769 144.985 119.411 144.985 118.969C144.985 118.528 144.627 118.17 144.185 118.17Z" fill="#E6E6E6"/>
<path d="M134.934 118.037H125.881C125.439 118.037 125.081 118.395 125.081 118.836C125.081 119.278 125.439 119.636 125.881 119.636H134.934C135.375 119.636 135.733 119.278 135.733 118.836C135.733 118.395 135.375 118.037 134.934 118.037Z" fill="#E6E6E6"/>
<path d="M157.145 118.037H148.093C147.651 118.037 147.293 118.395 147.293 118.836C147.293 119.278 147.651 119.636 148.093 119.636H157.145C157.587 119.636 157.945 119.278 157.945 118.836C157.945 118.395 157.587 118.037 157.145 118.037Z" fill="#E6E6E6"/>
<path d="M127.248 121.779H125.792C125.35 121.779 124.992 122.137 124.992 122.579C124.992 123.02 125.35 123.378 125.792 123.378H127.248C127.69 123.378 128.048 123.02 128.048 122.579C128.048 122.137 127.69 121.779 127.248 121.779Z" fill="#E6E6E6"/>
<path d="M143.907 121.779H142.451C142.009 121.779 141.651 122.137 141.651 122.579C141.651 123.02 142.009 123.378 142.451 123.378H143.907C144.349 123.378 144.707 123.02 144.707 122.579C144.707 122.137 144.349 121.779 143.907 121.779Z" fill="#E6E6E6"/>
<path d="M148.627 121.779H147.171C146.729 121.779 146.371 122.137 146.371 122.579C146.371 123.02 146.729 123.378 147.171 123.378H148.627C149.069 123.378 149.427 123.02 149.427 122.579C149.427 122.137 149.069 121.779 148.627 121.779Z" fill="#E6E6E6"/>
<path d="M139.376 121.646H130.323C129.881 121.646 129.523 122.004 129.523 122.446C129.523 122.887 129.881 123.245 130.323 123.245H139.376C139.818 123.245 140.176 122.887 140.176 122.446C140.176 122.004 139.818 121.646 139.376 121.646Z" fill="#E6E6E6"/>
<path d="M161.588 121.646H152.535C152.093 121.646 151.735 122.004 151.735 122.446C151.735 122.887 152.093 123.245 152.535 123.245H161.588C162.029 123.245 162.387 122.887 162.387 122.446C162.387 122.004 162.029 121.646 161.588 121.646Z" fill="#E6E6E6"/>
<path d="M131.691 125.389H130.234C129.793 125.389 129.435 125.747 129.435 126.188C129.435 126.63 129.793 126.988 130.234 126.988H131.691C132.132 126.988 132.49 126.63 132.49 126.188C132.49 125.747 132.132 125.389 131.691 125.389Z" fill="#E6E6E6"/>
<path d="M148.35 125.389H146.893C146.451 125.389 146.093 125.747 146.093 126.188C146.093 126.63 146.451 126.988 146.893 126.988H148.35C148.791 126.988 149.149 126.63 149.149 126.188C149.149 125.747 148.791 125.389 148.35 125.389Z" fill="#E6E6E6"/>
<path d="M153.07 125.389H151.613C151.171 125.389 150.813 125.747 150.813 126.188C150.813 126.63 151.171 126.988 151.613 126.988H153.07C153.511 126.988 153.869 126.63 153.869 126.188C153.869 125.747 153.511 125.389 153.07 125.389Z" fill="#E6E6E6"/>
<path d="M143.818 125.255H134.765C134.324 125.255 133.966 125.613 133.966 126.055C133.966 126.497 134.324 126.855 134.765 126.855H143.818C144.26 126.855 144.618 126.497 144.618 126.055C144.618 125.613 144.26 125.255 143.818 125.255Z" fill="#E6E6E6"/>
<path d="M135.023 139.741H133.566C133.124 139.741 132.766 140.099 132.766 140.541C132.766 140.983 133.124 141.34 133.566 141.34H135.023C135.464 141.34 135.822 140.983 135.822 140.541C135.822 140.099 135.464 139.741 135.023 139.741Z" fill="#E6E6E6"/>
<path d="M139.743 139.741H138.286C137.844 139.741 137.486 140.099 137.486 140.541C137.486 140.983 137.844 141.34 138.286 141.34H139.743C140.184 141.34 140.542 140.983 140.542 140.541C140.542 140.099 140.184 139.741 139.743 139.741Z" fill="#E6E6E6"/>
<path d="M152.703 139.875H143.65C143.209 139.875 142.851 140.233 142.851 140.674C142.851 141.116 143.209 141.474 143.65 141.474H152.703C153.145 141.474 153.503 141.116 153.503 140.674C153.503 140.233 153.145 139.875 152.703 139.875Z" fill="#E6E6E6"/>
<path d="M118.364 139.741H116.907C116.465 139.741 116.107 140.099 116.107 140.541C116.107 140.983 116.465 141.34 116.907 141.34H118.364C118.805 141.34 119.163 140.983 119.163 140.541C119.163 140.099 118.805 139.741 118.364 139.741Z" fill="#E6E6E6"/>
<path d="M130.491 139.875H121.438C120.997 139.875 120.639 140.233 120.639 140.674C120.639 141.116 120.997 141.474 121.438 141.474H130.491C130.933 141.474 131.291 141.116 131.291 140.674C131.291 140.233 130.933 139.875 130.491 139.875Z" fill="#E6E6E6"/>
<path d="M122.806 136.132H121.349C120.908 136.132 120.55 136.49 120.55 136.931C120.55 137.373 120.908 137.731 121.349 137.731H122.806C123.248 137.731 123.606 137.373 123.606 136.931C123.606 136.49 123.248 136.132 122.806 136.132Z" fill="#E6E6E6"/>
<path d="M139.465 136.132H138.008C137.567 136.132 137.209 136.49 137.209 136.931C137.209 137.373 137.567 137.731 138.008 137.731H139.465C139.906 137.731 140.264 137.373 140.264 136.931C140.264 136.49 139.906 136.132 139.465 136.132Z" fill="#E6E6E6"/>
<path d="M144.185 136.132H142.728C142.287 136.132 141.929 136.49 141.929 136.931C141.929 137.373 142.287 137.731 142.728 137.731H144.185C144.627 137.731 144.985 137.373 144.985 136.931C144.985 136.49 144.627 136.132 144.185 136.132Z" fill="#E6E6E6"/>
<path d="M134.934 136.265H125.881C125.439 136.265 125.081 136.623 125.081 137.065C125.081 137.506 125.439 137.864 125.881 137.864H134.934C135.375 137.864 135.733 137.506 135.733 137.065C135.733 136.623 135.375 136.265 134.934 136.265Z" fill="#E6E6E6"/>
<path d="M127.248 132.522H125.792C125.35 132.522 124.992 132.88 124.992 133.322C124.992 133.764 125.35 134.122 125.792 134.122H127.248C127.69 134.122 128.048 133.764 128.048 133.322C128.048 132.88 127.69 132.522 127.248 132.522Z" fill="#E6E6E6"/>
<path d="M143.907 132.522H142.451C142.009 132.522 141.651 132.88 141.651 133.322C141.651 133.764 142.009 134.122 142.451 134.122H143.907C144.349 134.122 144.707 133.764 144.707 133.322C144.707 132.88 144.349 132.522 143.907 132.522Z" fill="#E6E6E6"/>
<path d="M148.627 132.522H147.171C146.729 132.522 146.371 132.88 146.371 133.322C146.371 133.764 146.729 134.122 147.171 134.122H148.627C149.069 134.122 149.427 133.764 149.427 133.322C149.427 132.88 149.069 132.522 148.627 132.522Z" fill="#E6E6E6"/>
<path d="M139.376 132.656H130.323C129.881 132.656 129.523 133.014 129.523 133.455C129.523 133.897 129.881 134.255 130.323 134.255H139.376C139.818 134.255 140.176 133.897 140.176 133.455C140.176 133.014 139.818 132.656 139.376 132.656Z" fill="#E6E6E6"/>
<path d="M131.691 128.913H130.234C129.793 128.913 129.435 129.271 129.435 129.713C129.435 130.154 129.793 130.512 130.234 130.512H131.691C132.132 130.512 132.49 130.154 132.49 129.713C132.49 129.271 132.132 128.913 131.691 128.913Z" fill="#E6E6E6"/>
<path d="M148.35 128.913H146.893C146.451 128.913 146.093 129.271 146.093 129.713C146.093 130.154 146.451 130.512 146.893 130.512H148.35C148.791 130.512 149.149 130.154 149.149 129.713C149.149 129.271 148.791 128.913 148.35 128.913Z" fill="#E6E6E6"/>
<path d="M153.07 128.913H151.613C151.171 128.913 150.813 129.271 150.813 129.713C150.813 130.154 151.171 130.512 151.613 130.512H153.07C153.511 130.512 153.869 130.154 153.869 129.713C153.869 129.271 153.511 128.913 153.07 128.913Z" fill="#E6E6E6"/>
<path d="M143.818 129.046H134.765C134.324 129.046 133.966 129.404 133.966 129.846C133.966 130.288 134.324 130.646 134.765 130.646H143.818C144.26 130.646 144.618 130.288 144.618 129.846C144.618 129.404 144.26 129.046 143.818 129.046Z" fill="#E6E6E6"/>
<path d="M113.127 191.884C113.296 191.97 113.468 192.056 113.638 192.14C118.024 194.333 121.534 195.58 126.334 196.946C126.74 192.42 127.131 184.466 127.512 179.535C127.612 178.255 127.711 177.18 127.809 176.422C127.833 176.019 127.915 175.622 128.053 175.242L128.036 176.422L127.995 179.535L127.753 197.335C133.725 198.915 139.859 199.799 146.033 199.969C146.356 199.978 146.672 199.983 146.977 199.989C147.086 199.992 147.191 199.994 147.297 199.994C147.644 199.997 147.988 200 148.335 200C154.842 200.005 161.325 199.219 167.643 197.659C167.507 193.181 167.371 185.315 167.24 179.535C167.212 178.405 167.187 177.352 167.16 176.422C167.107 174.434 167.051 173.002 166.999 172.521C167.045 172.606 167.082 172.697 167.107 172.79C167.364 173.988 167.539 175.201 167.632 176.422C167.729 177.352 167.826 178.405 167.923 179.535C168.44 185.54 168.978 193.706 169.534 197.168C172.839 196.266 176.082 195.15 179.243 193.828C180.909 193.134 182.545 192.385 184.152 191.582C183.846 189.583 183.527 187.342 183.199 185.018C182.944 183.216 182.68 181.364 182.411 179.535C181.994 176.708 175.806 156.956 175.414 156.207C175.078 155.565 174.759 154.96 174.456 154.402C173.723 153.047 173.101 151.967 172.64 151.284C170.714 148.361 167.845 146.185 164.511 145.117L164.428 145.095L164.369 145.12L158.691 143.376L157.861 143.121L157.303 142.949L155.337 141.452L154.268 140.639L153.266 139.875L151.306 138.384L139.17 139.131L136.807 144.82L131.515 146.755L131.424 146.714L131.343 146.681L131.26 146.703C127.926 147.771 125.058 149.947 123.13 152.869C122.869 153.261 122.553 153.777 122.195 154.402C121.889 154.932 121.556 155.537 121.195 156.207C120.681 157.159 120.121 158.233 119.526 159.397C119.396 159.652 119.263 159.913 119.129 160.177C118.882 160.666 118.632 161.164 118.377 161.673C117.786 162.853 117.175 164.086 116.564 165.338C116.034 166.424 115.498 168.656 114.97 171.497C114.534 173.857 114.101 176.639 113.682 179.535C113.132 183.288 113.718 187.783 113.221 191.237C113.191 191.457 113.157 191.671 113.127 191.884Z" fill="#3F3D56"/>
<path opacity="0.2" d="M171.291 171.485L168.932 162.38L166.849 170.236L171.291 171.485Z" fill="black"/>
<path d="M108.512 165.552C109.356 177.18 108.482 182.3 113.141 191.887C117.379 193.962 121.795 195.655 126.334 196.946C126.806 197.079 127.279 197.209 127.753 197.335C133.725 198.915 139.859 199.799 146.033 199.969C146.356 199.978 146.672 199.983 146.977 199.989C147.086 199.992 147.191 199.994 147.297 199.994C147.644 199.997 147.988 200 148.335 200C154.842 200.005 161.325 199.219 167.643 197.659C168.276 197.504 168.906 197.34 169.534 197.168C172.839 196.266 176.082 195.15 179.243 193.828C180.909 193.134 182.545 192.385 184.152 191.582C184.515 191.398 184.879 191.215 185.237 191.026C187.078 187.789 188.125 183.852 188.147 179.121C186.873 170.969 111.327 158.522 108.512 165.552Z" fill="#2F2E41"/>
<path opacity="0.2" d="M108.514 167.544C108.471 166.824 108.423 166.08 108.367 165.306C111.182 158.276 186.727 170.723 188.002 178.874C187.998 179.622 187.966 180.347 187.912 181.055C184.826 173.009 113.057 161.179 108.514 167.544Z" fill="black"/>
<path d="M91.3949 171.379C91.5173 171.735 91.7493 172.043 92.0578 172.259C92.3662 172.475 92.7352 172.588 93.1117 172.581L100.467 172.392C100.846 172.385 101.213 172.255 101.512 172.022C101.812 171.789 102.028 171.465 102.128 171.099L103.169 159.969C103.538 160.136 103.94 160.219 104.345 160.211C105.056 160.192 105.731 159.893 106.22 159.377C106.71 158.862 106.975 158.173 106.958 157.462C106.94 156.751 106.64 156.076 106.125 155.586C105.61 155.096 104.921 154.83 104.211 154.848C104.049 154.847 103.887 154.864 103.728 154.898C103.556 154.711 103.347 154.563 103.114 154.462C102.881 154.362 102.629 154.311 102.375 154.314L91.0609 154.606C90.9671 154.609 90.8737 154.621 90.7818 154.641C90.5337 154.687 90.2984 154.786 90.0917 154.931C89.885 155.075 89.7117 155.263 89.5835 155.48C89.4553 155.698 89.3751 155.94 89.3485 156.191C89.3218 156.442 89.3492 156.696 89.4288 156.935L91.3949 171.379ZM103.382 159.213L104.123 156.561C104.207 156.255 104.209 155.931 104.128 155.624C104.164 155.624 104.196 155.607 104.232 155.607C104.74 155.596 105.231 155.788 105.598 156.139C105.965 156.49 106.178 156.972 106.19 157.48C106.202 157.988 106.012 158.48 105.661 158.848C105.311 159.216 104.829 159.43 104.322 159.443C103.993 159.453 103.668 159.374 103.382 159.213V159.213Z" fill="#2F2E41"/>
<path d="M90.7819 154.641C91.0229 156.019 93.733 156.988 96.9917 156.819C99.9883 156.681 102.438 155.629 102.887 154.382C102.721 154.333 102.548 154.31 102.375 154.314L91.0609 154.606C90.9671 154.609 90.8737 154.621 90.7819 154.641V154.641Z" fill="#3F3D56"/>
<path d="M97.5889 165.263C97.6038 165.259 97.618 165.253 97.6308 165.244L99.2282 164.199C99.2475 164.186 99.2634 164.169 99.2743 164.149C99.2853 164.129 99.2911 164.106 99.2911 164.083C99.2911 164.06 99.2854 164.037 99.2744 164.017C99.2634 163.997 99.2476 163.979 99.2283 163.967L97.568 162.879C97.5528 162.869 97.5357 162.862 97.5177 162.859C97.4998 162.855 97.4814 162.855 97.4635 162.859C97.4456 162.863 97.4286 162.87 97.4135 162.88C97.3984 162.89 97.3854 162.904 97.3754 162.919C97.3654 162.934 97.3585 162.951 97.3551 162.969C97.3517 162.987 97.3519 163.006 97.3557 163.024C97.3594 163.041 97.3667 163.058 97.377 163.073C97.3873 163.088 97.4005 163.101 97.4159 163.111L98.8988 164.083L97.4789 165.012C97.4514 165.03 97.4312 165.057 97.4218 165.089C97.4124 165.12 97.4145 165.154 97.4277 165.184C97.4409 165.214 97.4644 165.239 97.4939 165.253C97.5234 165.267 97.5571 165.271 97.5889 165.263H97.5889Z" fill="#3B82F6"/>
<path d="M95.066 165.379C95.0928 165.372 95.117 165.358 95.1354 165.337C95.1538 165.317 95.1657 165.291 95.1694 165.264C95.1732 165.236 95.1687 165.208 95.1565 165.183C95.1443 165.159 95.125 165.138 95.101 165.124L93.6286 164.28L95.0517 163.223C95.0663 163.212 95.0787 163.198 95.088 163.183C95.0974 163.167 95.1036 163.15 95.1062 163.132C95.1089 163.114 95.108 163.095 95.1035 163.078C95.0991 163.06 95.0912 163.044 95.0803 163.029C95.0695 163.014 95.0558 163.002 95.0402 162.993C95.0246 162.983 95.0072 162.977 94.9892 162.974C94.9712 162.972 94.9528 162.973 94.9351 162.977C94.9175 162.982 94.9009 162.989 94.8862 163L93.2929 164.184C93.2744 164.198 93.2596 164.216 93.2499 164.237C93.2401 164.257 93.2357 164.28 93.2371 164.303C93.2384 164.326 93.2455 164.349 93.2576 164.368C93.2698 164.388 93.2866 164.404 93.3066 164.416L94.9628 165.365C94.9941 165.383 95.0311 165.388 95.066 165.379Z" fill="#3B82F6"/>
<path d="M97.43 166.179C97.4435 166.176 97.4563 166.17 97.4681 166.163C97.4837 166.154 97.4972 166.141 97.508 166.126C97.5188 166.112 97.5266 166.095 97.5309 166.077C97.5352 166.06 97.536 166.041 97.5332 166.023C97.5304 166.005 97.5241 165.988 97.5146 165.972L95.2502 162.249C95.231 162.218 95.2001 162.196 95.1644 162.187C95.1287 162.179 95.091 162.185 95.0597 162.204C95.0283 162.223 95.0058 162.253 94.997 162.289C94.9883 162.325 94.994 162.363 95.013 162.394L97.2774 166.117C97.2928 166.142 97.316 166.162 97.3434 166.173C97.3709 166.184 97.4013 166.186 97.43 166.179V166.179Z" fill="#3B82F6"/>
<path d="M273.304 150.555H248.593V172.212H273.304V150.555Z" fill="#3F3D56"/>
<path d="M276.967 120.306C276.508 123.021 276.911 125.811 278.117 128.286C278.564 129.196 279.117 130.293 278.573 131.149C278.42 131.363 278.222 131.54 277.992 131.667C277.762 131.794 277.507 131.869 277.245 131.885C276.72 131.912 276.195 131.844 275.695 131.684" fill="#CCCCCC"/>
<path d="M255.257 111.962C255.717 111.962 256.09 111.651 256.09 111.268C256.09 110.885 255.717 110.574 255.257 110.574C254.797 110.574 254.424 110.885 254.424 111.268C254.424 111.651 254.797 111.962 255.257 111.962Z" fill="#3F3D56"/>
<path d="M258.311 112.24C258.771 112.24 259.144 111.929 259.144 111.546C259.144 111.162 258.771 110.852 258.311 110.852C257.851 110.852 257.478 111.162 257.478 111.546C257.478 111.929 257.851 112.24 258.311 112.24Z" fill="#3F3D56"/>
<path d="M261.365 113.628C261.825 113.628 262.198 113.317 262.198 112.934C262.198 112.551 261.825 112.24 261.365 112.24C260.905 112.24 260.532 112.551 260.532 112.934C260.532 113.317 260.905 113.628 261.365 113.628Z" fill="#3F3D56"/>
<path d="M264.975 112.795C265.435 112.795 265.807 112.484 265.807 112.101C265.807 111.718 265.435 111.407 264.975 111.407C264.514 111.407 264.142 111.718 264.142 112.101C264.142 112.484 264.514 112.795 264.975 112.795Z" fill="#3F3D56"/>
<path d="M189.156 125.951C193.201 124.828 197.707 126.032 200.833 128.788C202.52 130.286 203.758 132.223 204.409 134.383C205.207 136.953 205.339 139.665 205.423 142.337C205.515 145.292 205.596 148.247 205.682 151.202C205.764 154.019 205.773 156.849 205.961 159.662C206.119 162.022 206.497 164.472 207.76 166.519C208.931 168.417 210.781 169.699 212.872 170.405C214.991 171.121 217.276 171.288 219.499 171.273C222.086 171.265 224.669 171.06 227.225 170.661C232.08 169.883 236.876 167.899 239.841 163.806C241.207 161.948 241.974 159.718 242.041 157.413C242.104 154.727 241.245 152.125 240.305 149.644C239.391 147.229 238.401 144.85 237.822 142.326C237.284 139.964 237.028 137.546 237.059 135.123C237.108 130.276 238.27 125.505 240.454 121.178C241.559 118.956 242.962 116.894 244.623 115.049C246.335 113.186 248.456 111.647 250.978 111.143C252.208 110.888 253.483 110.939 254.689 111.292C255.204 111.446 255.424 110.643 254.911 110.489C252.412 109.741 249.698 110.31 247.483 111.608C245.305 112.885 243.584 114.8 242.124 116.83C239.317 120.812 237.449 125.377 236.659 130.183C235.869 134.99 236.178 139.913 237.562 144.583C239.044 149.439 242.268 154.493 240.883 159.748C239.671 164.348 235.472 167.474 231.133 168.886C228.501 169.743 225.742 170.105 222.989 170.292C220.663 170.451 218.306 170.552 215.987 170.253C213.856 169.978 211.665 169.327 210.013 167.897C208.203 166.33 207.375 164.077 207.015 161.766C206.608 159.15 206.668 156.453 206.591 153.814L206.328 144.807C206.18 139.719 206.308 134.081 202.998 129.865C201.675 128.223 199.994 126.904 198.084 126.008C196.174 125.113 194.085 124.665 191.976 124.698C190.948 124.722 189.926 124.873 188.935 125.148C188.831 125.18 188.745 125.251 188.693 125.346C188.642 125.441 188.629 125.552 188.657 125.656C188.686 125.76 188.754 125.849 188.847 125.904C188.94 125.959 189.051 125.976 189.156 125.951H189.156Z" fill="#3F3D56"/>
<path d="M130.026 120.682C130.616 124.877 132.847 128.667 136.229 131.218C139.611 133.769 143.868 134.873 148.064 134.288C152.259 133.703 156.051 131.475 158.606 128.096C161.161 124.716 162.269 120.461 161.688 116.264L161.657 116.038C160.98 111.898 158.704 108.189 155.318 105.713C151.933 103.236 147.709 102.19 143.559 102.799C139.409 103.408 135.665 105.625 133.134 108.97C130.603 112.315 129.489 116.521 130.031 120.681L130.026 120.682Z" fill="#FFB6B6"/>
<path d="M144.117 133.899C143.291 132.234 142.442 130.447 142.666 128.602C142.891 126.757 144.693 124.988 146.471 125.53C147.534 125.854 148.34 126.9 149.45 126.95C150.978 127.019 151.848 125.268 152.318 123.813L154.235 117.887C157.931 120.791 153.25 117.747 157.829 116.684C159.625 116.267 161.438 115.459 162.488 113.943C163.537 112.427 163.523 110.08 162.073 108.941C161.362 108.382 160.417 108.172 159.737 107.576C159.316 107.206 159.024 106.71 158.906 106.162C158.788 105.614 158.85 105.042 159.082 104.531C159.315 104.021 159.705 103.598 160.196 103.327C160.687 103.055 161.252 102.949 161.808 103.024L156.931 102.431L158.374 99.7989C157.331 100.628 155.874 100.743 154.562 100.512C153.249 100.28 152.012 99.7439 150.728 99.388C144.562 97.6797 137.413 100.71 134.353 106.329C133.152 105.932 131.859 105.91 130.645 106.265C129.431 106.62 128.353 107.335 127.555 108.316C126.255 109.977 125.908 112.189 125.864 114.297C125.783 118.454 126.704 122.57 128.547 126.297C129.122 127.455 129.801 128.591 130.778 129.438C131.754 130.285 142.792 134.979 144.066 134.757" fill="#2F2E41"/>
<path d="M259.422 122.929C259.424 123.65 259.331 124.368 259.147 125.064V125.067C259.144 125.081 259.138 125.095 259.136 125.109C258.575 127.172 257.236 128.621 255.673 128.621C254.118 128.621 252.786 127.183 252.217 125.137C252.178 124.995 252.144 124.853 252.114 124.706C252.075 124.542 252.044 124.373 252.019 124.198C251.997 124.059 251.981 123.918 251.967 123.773C251.947 123.573 251.933 123.374 251.931 123.165V123.163C251.925 123.085 251.925 123.007 251.925 122.929V122.86L251.928 122.857C251.928 122.505 251.951 122.154 251.997 121.805C252.017 121.658 252.039 121.516 252.067 121.374C252.1 121.202 252.136 121.033 252.181 120.866C252.217 120.719 252.258 120.578 252.303 120.436C252.364 120.247 252.43 120.064 252.505 119.889C252.553 119.775 252.603 119.664 252.653 119.556C253.336 118.151 254.435 117.238 255.673 117.238C257.386 117.238 258.83 118.984 259.277 121.366C259.283 121.402 259.291 121.438 259.294 121.474V121.477C259.379 121.957 259.422 122.442 259.422 122.929Z" fill="#E6E6E6"/>
<path d="M252.689 119.678C252.687 119.729 252.668 119.778 252.635 119.816C252.601 119.855 252.556 119.88 252.505 119.889C252.553 119.775 252.603 119.664 252.653 119.556C252.676 119.592 252.688 119.635 252.689 119.678Z" fill="#3B82F6"/>
<path d="M255.971 119.425H253.528C253.409 119.425 253.312 119.522 253.312 119.641C253.312 119.76 253.409 119.857 253.528 119.857H255.971C256.09 119.857 256.187 119.76 256.187 119.641C256.187 119.522 256.09 119.425 255.971 119.425Z" fill="#3B82F6"/>
<path d="M252.614 120.65C252.614 120.707 252.591 120.762 252.55 120.803C252.51 120.843 252.454 120.866 252.397 120.866H252.18C252.217 120.719 252.258 120.578 252.303 120.436H252.397C252.454 120.436 252.509 120.458 252.549 120.498C252.59 120.538 252.613 120.593 252.614 120.65V120.65Z" fill="#3B82F6"/>
<path d="M253.672 120.435H253.279C253.16 120.435 253.063 120.532 253.063 120.651C253.063 120.77 253.16 120.867 253.279 120.867H253.672C253.791 120.867 253.888 120.77 253.888 120.651C253.888 120.532 253.791 120.435 253.672 120.435Z" fill="#3B82F6"/>
<path d="M257.17 120.399H254.727C254.608 120.399 254.511 120.496 254.511 120.615C254.511 120.734 254.608 120.831 254.727 120.831H257.17C257.289 120.831 257.386 120.734 257.386 120.615C257.386 120.496 257.289 120.399 257.17 120.399Z" fill="#3B82F6"/>
<path d="M253.597 121.409H253.204C253.085 121.409 252.988 121.506 252.988 121.625C252.988 121.744 253.085 121.841 253.204 121.841H253.597C253.717 121.841 253.813 121.744 253.813 121.625C253.813 121.506 253.717 121.409 253.597 121.409Z" fill="#3B82F6"/>
<path d="M254.871 121.409H254.478C254.359 121.409 254.262 121.506 254.262 121.625C254.262 121.744 254.359 121.841 254.478 121.841H254.871C254.99 121.841 255.087 121.744 255.087 121.625C255.087 121.506 254.99 121.409 254.871 121.409Z" fill="#3B82F6"/>
<path d="M252.591 121.588C252.591 121.646 252.569 121.701 252.528 121.741C252.487 121.782 252.432 121.805 252.375 121.805H251.997C252.017 121.658 252.039 121.516 252.067 121.375H252.375C252.403 121.374 252.431 121.38 252.457 121.39C252.484 121.401 252.507 121.416 252.528 121.436C252.548 121.456 252.564 121.48 252.575 121.506C252.586 121.532 252.591 121.56 252.591 121.588V121.588Z" fill="#3B82F6"/>
<path d="M258.369 121.373H255.926C255.807 121.373 255.71 121.47 255.71 121.589C255.71 121.708 255.807 121.805 255.926 121.805H258.369C258.488 121.805 258.585 121.708 258.585 121.589C258.585 121.47 258.488 121.373 258.369 121.373Z" fill="#3B82F6"/>
<path d="M252.689 123.01C252.689 123.038 252.683 123.066 252.672 123.092C252.661 123.118 252.645 123.142 252.625 123.162C252.605 123.182 252.581 123.197 252.555 123.208C252.528 123.219 252.5 123.224 252.472 123.224H252.081C252.025 123.224 251.971 123.203 251.931 123.165V123.163C251.925 123.085 251.925 123.007 251.925 122.929V122.86L251.928 122.857C251.948 122.837 251.972 122.821 251.998 122.81C252.024 122.799 252.052 122.793 252.081 122.793H252.472C252.529 122.793 252.584 122.816 252.625 122.857C252.666 122.897 252.689 122.952 252.689 123.01V123.01Z" fill="#CCCCCC"/>
<path d="M255.971 122.757H253.528C253.409 122.757 253.312 122.854 253.312 122.973C253.312 123.092 253.409 123.189 253.528 123.189H255.971C256.09 123.189 256.187 123.092 256.187 122.973C256.187 122.854 256.09 122.757 255.971 122.757Z" fill="#CCCCCC"/>
<path d="M252.614 123.982C252.614 124.039 252.591 124.094 252.55 124.135C252.51 124.175 252.454 124.198 252.397 124.198H252.019C251.997 124.059 251.981 123.918 251.967 123.773C251.979 123.769 251.992 123.767 252.006 123.768H252.397C252.454 123.768 252.509 123.79 252.549 123.83C252.59 123.87 252.613 123.925 252.614 123.982V123.982Z" fill="#CCCCCC"/>
<path d="M253.672 123.767H253.279C253.16 123.767 253.063 123.864 253.063 123.983C253.063 124.102 253.16 124.199 253.279 124.199H253.672C253.791 124.199 253.888 124.102 253.888 123.983C253.888 123.864 253.791 123.767 253.672 123.767Z" fill="#CCCCCC"/>
<path d="M257.17 123.731H254.727C254.608 123.731 254.511 123.828 254.511 123.947C254.511 124.066 254.608 124.163 254.727 124.163H257.17C257.289 124.163 257.386 124.066 257.386 123.947C257.386 123.828 257.289 123.731 257.17 123.731Z" fill="#CCCCCC"/>
<path d="M253.597 124.741H253.204C253.085 124.741 252.988 124.838 252.988 124.957C252.988 125.076 253.085 125.173 253.204 125.173H253.597C253.717 125.173 253.813 125.076 253.813 124.957C253.813 124.838 253.717 124.741 253.597 124.741Z" fill="#CCCCCC"/>
<path d="M254.871 124.741H254.478C254.359 124.741 254.262 124.838 254.262 124.957C254.262 125.076 254.359 125.173 254.478 125.173H254.871C254.99 125.173 255.087 125.076 255.087 124.957C255.087 124.838 254.99 124.741 254.871 124.741Z" fill="#CCCCCC"/>
<path d="M252.591 124.92C252.591 124.977 252.569 125.033 252.528 125.073C252.487 125.114 252.432 125.137 252.375 125.137H252.217C252.178 124.995 252.144 124.853 252.114 124.706H252.375C252.403 124.706 252.431 124.711 252.457 124.722C252.484 124.733 252.507 124.748 252.528 124.768C252.548 124.788 252.564 124.812 252.575 124.838C252.586 124.864 252.591 124.892 252.591 124.92Z" fill="#CCCCCC"/>
<path d="M258.369 124.705H255.926C255.807 124.705 255.71 124.802 255.71 124.921C255.71 125.04 255.807 125.137 255.926 125.137H258.369C258.488 125.137 258.585 125.04 258.585 124.921C258.585 124.802 258.488 124.705 258.369 124.705Z" fill="#CCCCCC"/>
</g>
<defs>
<clipPath id="clip0_2_234">
<rect width="205.132" height="160" fill="white" transform="translate(87 40)"/>
</clipPath>
</defs>
</svg>
