<svg width="380" height="200" viewBox="0 0 380 200" fill="none" xmlns="http://www.w3.org/2000/svg">
<rect width="380" height="200" rx="32" fill="#3F3D56"/>
<g clip-path="url(#clip0_2_225)">
<path d="M275.158 91.1833C275.158 97.8427 273.581 103.324 270.846 108.02C269.943 109.567 268.918 111.039 267.781 112.423C257.726 124.725 239.031 131.458 222.134 142.365C172.258 174.558 166.855 122.971 169.108 91.1833C170.016 78.3567 175.01 66.6075 182.943 57.6115C184.61 55.7195 186.409 53.9495 188.329 52.3153C197.336 44.6429 208.972 40 222.134 40C244.715 40 263.999 53.6238 271.645 72.822C273.969 78.6642 275.162 84.8954 275.158 91.1833V91.1833Z" fill="#3B82F6"/>
<path d="M233.431 51.5352L182.943 57.6115C184.61 55.7195 186.409 53.9495 188.329 52.3153L233.431 51.5352Z" fill="#D0CDE1"/>
<path d="M270.846 108.02C269.943 109.567 268.918 111.039 267.781 112.423L224.534 107.219L270.846 108.02Z" fill="#D0CDE1"/>
<path d="M273.409 78.101L200.115 68.5919L271.645 72.8219C272.332 74.547 272.921 76.3095 273.409 78.101V78.101Z" fill="#D0CDE1"/>
<path d="M174.079 53.6336C174.079 53.7642 174.076 53.893 174.064 54.0199C174.007 54.8062 173.775 55.5698 173.385 56.2552C172.996 56.9405 172.458 57.5302 171.812 57.9815C171.165 58.4327 170.427 58.734 169.649 58.8635C168.872 58.993 168.075 58.9474 167.317 58.7301C166.56 58.5127 165.86 58.129 165.269 57.607C164.679 57.085 164.212 56.4377 163.903 55.7124C163.594 54.9871 163.451 54.202 163.483 53.4142C163.516 52.6265 163.724 51.856 164.092 51.1588C164.206 50.9403 164.336 50.7308 164.482 50.532C165.116 49.6526 166.004 48.9889 167.027 48.6302C168.05 48.2715 169.158 48.2353 170.202 48.5263C171.246 48.8173 172.176 49.4216 172.866 50.2576C173.556 51.0937 173.973 52.1213 174.061 53.2019C174.074 53.3439 174.079 53.4878 174.079 53.6336Z" fill="#3B82F6"/>
<path d="M174.079 53.6336C174.079 53.7643 174.076 53.893 174.064 54.0199L166.129 53.0656L174.061 53.2019C174.074 53.3439 174.079 53.4878 174.079 53.6336Z" fill="#D0CDE1"/>
<path d="M172.186 56.3054L164.845 57.1896C164.637 56.9573 164.45 56.707 164.285 56.4417L172.186 56.3054Z" fill="#D0CDE1"/>
<path d="M170.104 50.4355L164.092 51.1588C164.206 50.9403 164.336 50.7308 164.482 50.5321L170.104 50.4355Z" fill="#D0CDE1"/>
<path d="M246.719 149.09C246.658 149.205 246.595 149.317 246.525 149.424C246.106 150.092 245.543 150.658 244.878 151.08C244.212 151.503 243.461 151.772 242.679 151.867C241.896 151.963 241.102 151.882 240.355 151.632C239.608 151.382 238.925 150.968 238.358 150.421C237.791 149.874 237.352 149.207 237.075 148.469C236.798 147.731 236.689 146.94 236.756 146.154C236.823 145.369 237.064 144.608 237.462 143.928C237.861 143.247 238.405 142.664 239.057 142.221C239.26 142.081 239.474 141.957 239.695 141.85C240.667 141.37 241.763 141.201 242.835 141.363C243.906 141.526 244.902 142.014 245.688 142.76C246.474 143.507 247.012 144.477 247.229 145.539C247.447 146.601 247.334 147.704 246.905 148.7C246.85 148.831 246.788 148.961 246.719 149.09Z" fill="#3B82F6"/>
<path d="M246.719 149.09C246.658 149.205 246.594 149.317 246.525 149.424L239.963 144.86L246.905 148.7C246.85 148.831 246.788 148.961 246.719 149.09Z" fill="#D0CDE1"/>
<path d="M243.795 150.562L236.896 147.901C236.821 147.598 236.773 147.289 236.752 146.978L243.795 150.562Z" fill="#D0CDE1"/>
<path d="M244.707 144.401L239.057 142.221C239.26 142.081 239.474 141.957 239.695 141.85L244.707 144.401Z" fill="#D0CDE1"/>
<path d="M284.26 57.6953C284.351 57.7888 284.438 57.8836 284.518 57.9824C285.026 58.5853 285.393 59.294 285.593 60.0568C285.792 60.8196 285.819 61.6172 285.671 62.3917C285.523 63.1661 285.205 63.8978 284.738 64.5335C284.272 65.1693 283.67 65.6929 282.976 66.0665C282.282 66.44 281.513 66.6539 280.726 66.6927C279.939 66.7315 279.153 66.5942 278.425 66.2907C277.698 65.9872 277.047 65.5253 276.521 64.9385C275.994 64.3517 275.605 63.6548 275.382 62.8986C275.311 62.6626 275.258 62.4216 275.224 62.1776C275.064 61.1054 275.236 60.0098 275.718 59.0387C276.2 58.0677 276.968 57.2678 277.919 56.747C278.869 56.2261 279.957 56.0095 281.034 56.1261C282.112 56.2428 283.128 56.6872 283.945 57.3994C284.053 57.4918 284.158 57.5909 284.26 57.6953Z" fill="#3B82F6"/>
<path d="M284.26 57.6953C284.351 57.7888 284.438 57.8836 284.518 57.9824L278.171 62.8412L283.945 57.3994C284.053 57.4918 284.158 57.5909 284.26 57.6953Z" fill="#D0CDE1"/>
<path d="M284.769 60.9301L280.131 66.69C279.82 66.6692 279.511 66.6209 279.208 66.5459L284.769 60.9301Z" fill="#D0CDE1"/>
<path d="M279.181 58.182L275.382 62.8986C275.311 62.6626 275.258 62.4216 275.224 62.1776L279.181 58.182Z" fill="#D0CDE1"/>
<path d="M184.822 155.4C184.822 155.4 196.453 155.885 196.453 158.794C196.453 161.702 183.368 158.794 183.368 158.794L184.822 155.4Z" fill="#A0616A"/>
<path d="M167.374 200L145.565 198.546L144.596 186.911L139.749 197.091L118.425 194.183C118.91 175.761 126.664 157.824 127.149 155.4C127.633 152.976 128.791 142.961 128.791 142.961C130.909 138.467 142.008 138.045 150.707 138.452C154.313 138.617 157.512 138.927 159.484 139.15C160.788 139.296 161.558 139.402 161.558 139.402C165.033 142.985 167.273 147.867 168.649 153.32C173.612 172.969 167.374 200 167.374 200Z" fill="#2F2E41"/>
<path d="M143.142 87.5308C149.833 87.5308 155.258 82.1048 155.258 75.4113C155.258 68.7179 149.833 63.2918 143.142 63.2918C136.45 63.2918 131.026 68.7179 131.026 75.4113C131.026 82.1048 136.45 87.5308 143.142 87.5308Z" fill="#A0616A"/>
<path d="M134.903 78.32C134.903 78.32 131.51 93.3482 126.179 97.7112C120.848 102.074 147.019 97.7112 147.019 97.7112C147.019 97.7112 141.203 88.0156 145.565 83.6526C149.927 79.2896 134.903 78.32 134.903 78.32Z" fill="#A0616A"/>
<path d="M159.62 140.372L151.58 141.264L129.087 143.765C129.087 143.765 128.98 143.479 128.791 142.961C127.158 138.506 119.292 116.826 118.425 110.316C117.456 103.044 127.633 94.3178 127.633 94.3178C127.633 94.3178 137.326 92.3787 140.234 92.3787C143.142 92.3787 154.773 96.7417 154.773 96.7417L159.111 135.771L159.484 139.15L159.62 140.372Z" fill="#D0CDE1"/>
<path opacity="0.15" d="M168.649 153.32L152.35 143.765C152.35 143.765 152.064 142.835 151.58 141.264C151.337 140.479 151.042 139.528 150.707 138.452C148.827 132.412 145.672 122.445 143.142 115.163C139.265 104.013 158.166 135.039 158.166 135.039L159.111 135.771L159.484 139.15C160.788 139.296 161.558 139.402 161.558 139.402C165.033 142.985 167.273 147.867 168.649 153.32Z" fill="black"/>
<path d="M147.019 97.7112C147.019 97.7112 142.173 104.013 146.05 115.163C149.927 126.313 155.258 143.765 155.258 143.765L183.368 160.248L187.245 155.4L161.074 135.039C161.074 135.039 160.105 98.196 155.258 96.7417C150.412 95.2873 147.019 97.7112 147.019 97.7112Z" fill="#D0CDE1"/>
<path d="M123.029 140.13C123.029 140.13 129.814 154.188 132.722 152.734C135.63 151.28 125.452 136.736 125.452 136.736L123.029 140.13Z" fill="#A0616A"/>
<path d="M122.302 101.589L96.6157 122.92C96.6157 122.92 86.9228 129.707 104.855 134.555C122.787 139.402 124.241 142.311 124.241 142.311C124.241 142.311 126.179 136.009 128.602 136.978L107.763 126.798L124.725 116.618L122.302 101.589Z" fill="#D0CDE1"/>
<path d="M111.978 85.3587C113.327 84.6908 116.304 83.3431 118.839 81.7193C118.661 76.4369 119.312 71.6416 121.215 69.0997C122.284 66.6729 124.528 64.2433 126.285 62.3299C130.601 57.6311 140.144 55.0082 141.836 57.3559C154.637 57.6087 155.985 67.6458 155.985 67.6458C155.918 71.8441 151.556 71.9769 147.735 71.8239C148.077 74.69 147.165 77.6681 144.525 78.9888C139.475 81.5143 137.96 84.7975 140.485 87.0706C143.01 89.3436 147.555 95.4049 141.495 96.9202C135.435 98.4355 134.678 101.466 136.445 102.729C138.213 103.992 132.405 100.456 132.405 100.456C132.405 100.456 131.395 106.517 126.093 105.002C125.618 104.866 125.143 104.518 124.676 103.998C123.244 105.572 121.967 106.502 121.004 106.507C115.49 106.537 116.151 100.427 116.151 100.427C116.151 100.427 109.606 102.266 111.648 101.527C113.69 100.787 113.778 97.6647 108.351 94.5712C102.924 91.4777 108.934 86.8665 111.978 85.3587Z" fill="#2F2E41"/>
<path d="M179.635 101.194L179.548 101.183L179.762 101.998C179.965 103.136 180.259 104.255 180.642 105.345L186.932 129.262C187.133 130.025 187.552 130.713 188.138 131.242C188.724 131.77 189.452 132.116 190.232 132.237L203.058 134.221C203.888 134.35 204.737 134.217 205.487 133.842C206.238 133.468 206.854 132.869 207.251 132.129L219.44 109.354C219.821 108.723 220.169 108.073 220.483 107.406L220.897 106.633L220.832 106.625C222.124 103.567 222.693 100.252 222.494 96.9386C222.295 93.625 221.334 90.4021 219.685 87.5212C218.037 84.6403 215.745 82.1792 212.989 80.3297C210.233 78.4802 207.088 77.2923 203.797 76.8586C200.507 76.425 197.161 76.7572 194.021 77.8295C190.88 78.9017 188.029 80.6851 185.691 83.0404C183.352 85.3958 181.589 88.2595 180.539 91.4085C179.488 94.5574 179.179 97.9064 179.635 101.194H179.635Z" fill="#3F3D56"/>
<path d="M203.846 135.784C203.62 135.784 203.394 135.767 203.171 135.732L189.763 133.657C188.912 133.526 188.117 133.148 187.477 132.571C186.837 131.994 186.379 131.242 186.16 130.409L179.586 105.41C179.184 104.265 178.875 103.09 178.662 101.896L178.496 100.802C178.049 97.3084 178.419 93.7584 179.579 90.4323C180.738 87.1063 182.655 84.0954 185.177 81.6373C187.699 79.1791 190.758 77.3411 194.112 76.2682C197.466 75.1954 201.024 74.9171 204.504 75.4553L204.446 75.8295C201.004 75.2989 197.485 75.5804 194.171 76.6514C190.857 77.7224 187.839 79.5533 185.358 81.9981C182.876 84.4428 181.001 87.4338 179.88 90.7324C178.76 94.031 178.425 97.5458 178.904 100.997L179.032 101.815C179.243 102.999 179.549 104.164 179.947 105.299L186.526 130.312C186.727 131.075 187.145 131.762 187.73 132.29C188.316 132.817 189.042 133.163 189.821 133.283L203.229 135.358C204.057 135.485 204.904 135.352 205.654 134.978C206.403 134.604 207.019 134.007 207.415 133.268L207.749 133.447C207.37 134.153 206.807 134.743 206.12 135.154C205.432 135.566 204.647 135.783 203.846 135.784V135.784Z" fill="#D0CDE1"/>
<path d="M207.247 106.631L199.088 128.911L199.548 129.08L207.706 106.799L207.247 106.631Z" fill="#D0CDE1"/>
<path d="M193.926 104.569L193.437 104.59L194.478 128.296L194.968 128.274L193.926 104.569Z" fill="#D0CDE1"/>
<path d="M202.712 147.118L185.532 144.459C185.404 144.438 185.29 144.368 185.214 144.264C185.137 144.159 185.106 144.028 185.126 143.9C185.145 143.773 185.215 143.658 185.319 143.581C185.423 143.504 185.554 143.472 185.682 143.491L202.862 146.149C202.926 146.159 202.987 146.181 203.042 146.214C203.098 146.247 203.146 146.291 203.184 146.343C203.222 146.395 203.25 146.454 203.265 146.517C203.281 146.58 203.284 146.645 203.274 146.709C203.264 146.773 203.241 146.834 203.208 146.889C203.174 146.944 203.13 146.992 203.078 147.03C203.026 147.068 202.966 147.095 202.904 147.11C202.841 147.125 202.776 147.128 202.712 147.118V147.118Z" fill="#3F3D56"/>
<path d="M203.153 143.468L185.972 140.81C185.909 140.8 185.847 140.778 185.792 140.745C185.737 140.712 185.688 140.668 185.65 140.616C185.612 140.564 185.584 140.505 185.569 140.442C185.553 140.379 185.551 140.314 185.56 140.25C185.57 140.186 185.593 140.125 185.626 140.07C185.66 140.015 185.704 139.967 185.756 139.929C185.809 139.891 185.868 139.864 185.93 139.849C185.993 139.834 186.058 139.831 186.122 139.841L203.302 142.5C203.366 142.51 203.428 142.532 203.483 142.565C203.538 142.598 203.586 142.642 203.625 142.694C203.663 142.746 203.69 142.805 203.706 142.868C203.721 142.93 203.724 142.996 203.714 143.059C203.704 143.123 203.682 143.184 203.648 143.24C203.615 143.295 203.571 143.343 203.518 143.381C203.466 143.419 203.407 143.446 203.344 143.461C203.281 143.476 203.216 143.478 203.153 143.468V143.468Z" fill="#3F3D56"/>
<path d="M203.593 139.819L186.413 137.16C186.285 137.14 186.171 137.07 186.095 136.965C186.018 136.86 185.987 136.73 186.007 136.602C186.026 136.474 186.096 136.359 186.2 136.282C186.304 136.206 186.435 136.173 186.563 136.192L203.743 138.851C203.871 138.871 203.985 138.942 204.061 139.046C204.137 139.151 204.169 139.281 204.149 139.409C204.129 139.537 204.06 139.652 203.956 139.729C203.851 139.806 203.721 139.838 203.593 139.819H203.593Z" fill="#3F3D56"/>
<path d="M193.588 149.241C196.996 149.768 200.052 148.296 200.415 145.953L188.074 144.043C187.711 146.386 190.18 148.714 193.588 149.241Z" fill="#3F3D56"/>
<path d="M199.764 101.936C199.03 101.823 198.424 101.244 198.091 100.855C197.982 100.728 197.876 100.596 197.77 100.463C197.383 99.981 197.017 99.5257 196.508 99.2883C195.384 98.7638 194.06 99.4964 192.913 100.282L192.636 99.8784C193.897 99.014 195.367 98.2155 196.715 98.8443C197.327 99.13 197.746 99.6518 198.152 100.156C198.255 100.285 198.358 100.413 198.463 100.536C198.809 100.94 199.499 101.595 200.237 101.444C200.549 101.353 200.838 101.2 201.088 100.993C201.279 100.851 201.48 100.724 201.691 100.613C202.117 100.408 202.595 100.335 203.063 100.401C203.532 100.467 203.97 100.67 204.323 100.985C204.449 101.105 204.568 101.231 204.68 101.363C204.901 101.614 205.109 101.851 205.379 101.938C205.78 102.066 206.203 101.837 206.651 101.595C207.113 101.345 207.591 101.087 208.133 101.151C208.151 101.153 208.168 101.155 208.186 101.158C209.151 101.307 209.595 102.375 209.847 103.171L209.38 103.318C209.038 102.236 208.622 101.698 208.076 101.638C207.687 101.592 207.297 101.803 206.884 102.026C206.365 102.306 205.829 102.595 205.231 102.404C204.83 102.277 204.567 101.977 204.312 101.686C204.212 101.567 204.105 101.454 203.993 101.347C203.711 101.1 203.364 100.941 202.994 100.889C202.624 100.837 202.247 100.893 201.908 101.052C201.721 101.152 201.541 101.266 201.371 101.393C201.067 101.641 200.714 101.822 200.336 101.924C200.147 101.962 199.953 101.966 199.764 101.936Z" fill="#D0CDE1"/>
</g>
<defs>
<clipPath id="clip0_2_225">
<rect width="191.765" height="160" fill="white" transform="translate(94 40)"/>
</clipPath>
</defs>
</svg>
