<svg width="388" height="390" viewBox="0 0 388 390" fill="none" xmlns="http://www.w3.org/2000/svg">
<path d="M330.554 390C314.272 387.446 298.617 385.274 283.588 383.483L289.376 371.887C287.367 371.216 278.662 377.925 278.662 377.925L286.028 344.382C275.984 345.724 271.297 379.937 271.297 379.937L259.914 368.533L265.518 381.445C219.53 376.603 179.848 375.093 146.49 375.439L151.443 365.514C149.435 364.843 140.73 371.552 140.73 371.552L148.096 338.009C138.052 339.351 133.365 373.564 133.365 373.564L121.982 362.16L127.917 375.836C105.067 376.501 82.2668 378.34 59.6054 381.347C64.5478 365.92 81.8079 351.091 81.8079 351.091C68.5365 355.227 61.6322 361.967 58.0586 368.214C57.3357 336.52 62.2021 304.948 72.4338 274.949C72.4338 274.949 45.6509 335.326 49.6683 375.577L50.1781 382.727C26.8774 386.369 15.1853 390 15.1853 390H330.554Z" fill="#3F3D56"/>
<path d="M379.965 277.55C378.376 277.55 376.823 277.078 375.501 276.193C374.18 275.308 373.15 274.051 372.542 272.58C371.934 271.109 371.775 269.491 372.085 267.929C372.395 266.367 373.16 264.933 374.284 263.807C375.407 262.681 376.839 261.915 378.398 261.604C379.956 261.293 381.572 261.453 383.04 262.062C384.508 262.671 385.763 263.703 386.646 265.027C387.529 266.351 388 267.907 388 269.5C387.998 271.634 387.15 273.68 385.644 275.189C384.138 276.698 382.095 277.547 379.965 277.55V277.55ZM379.965 262.791C378.641 262.791 377.346 263.184 376.245 263.922C375.144 264.659 374.286 265.707 373.779 266.932C373.272 268.158 373.14 269.507 373.398 270.808C373.656 272.11 374.294 273.305 375.231 274.243C376.167 275.181 377.36 275.82 378.659 276.079C379.958 276.338 381.304 276.205 382.528 275.697C383.751 275.19 384.797 274.33 385.532 273.227C386.268 272.123 386.661 270.826 386.661 269.5C386.659 267.721 385.953 266.016 384.698 264.758C383.442 263.5 381.74 262.793 379.965 262.791V262.791Z" fill="#3F3D56"/>
<path d="M295.165 334.796H281.947V321.553H295.165V334.796ZM282.964 333.777H294.149V322.571H282.964V333.777Z" fill="#3F3D56"/>
<path d="M55.0072 274.157L45.9914 264.472L55.6575 255.439L64.6733 265.124L55.0072 274.157ZM47.4284 264.522L55.0572 272.717L63.2362 265.073L55.6074 256.879L47.4284 264.522Z" fill="#3F3D56"/>
<path d="M270.611 89.7331V133.795C270.61 134.202 270.448 134.592 270.16 134.88C269.873 135.168 269.484 135.33 269.077 135.331H267.986V364.863C267.986 371.214 265.467 377.306 260.984 381.797C256.502 386.289 250.422 388.812 244.082 388.812H100.934C97.7956 388.812 94.6877 388.192 91.7881 386.988C88.8885 385.785 86.2539 384.02 84.0348 381.797C81.8157 379.573 80.0556 376.932 78.8549 374.027C77.6543 371.121 77.0366 368.007 77.0372 364.863V143.381H76.2471C75.9604 143.382 75.6853 143.268 75.482 143.066C75.2786 142.863 75.1637 142.588 75.1624 142.301V117.225C75.1624 117.082 75.1904 116.941 75.2449 116.809C75.2994 116.677 75.3793 116.557 75.48 116.456C75.5808 116.355 75.7003 116.275 75.832 116.221C75.9636 116.166 76.1046 116.138 76.2471 116.138H77.0372V106.692H76.2404C75.9395 106.691 75.6513 106.57 75.4391 106.357C75.227 106.143 75.1082 105.853 75.1088 105.552V80.8175C75.1096 80.5171 75.2291 80.2291 75.4411 80.0167C75.6531 79.8042 75.9405 79.6845 76.2404 79.6838H77.0372V66.79H76.227C76.095 66.7902 75.9644 66.7643 75.8424 66.7137C75.7205 66.6632 75.6097 66.5891 75.5164 66.4957C75.4231 66.4022 75.3491 66.2912 75.2987 66.169C75.2483 66.0468 75.2224 65.9159 75.2226 65.7837V52.2862C75.222 52.0185 75.3274 51.7615 75.5157 51.5716C75.704 51.3817 75.9598 51.2744 76.227 51.2732H77.0372V23.9427C77.0374 17.5928 79.5552 11.503 84.0367 7.01291C88.5182 2.52283 94.5964 0.000231282 100.934 2.45046e-10H244.082C250.421 -2.87067e-05 256.5 2.52227 260.982 7.01221C265.465 11.5021 267.984 17.5921 267.986 23.9427V88.1969H269.077C269.484 88.1979 269.873 88.3601 270.16 88.648C270.448 88.9359 270.61 89.326 270.611 89.7331V89.7331Z" fill="#3F3D56"/>
<path d="M179.405 12.2811H156.144C155.204 12.2811 154.442 13.0446 154.442 13.9864V16.0007C154.442 16.9425 155.204 17.7059 156.144 17.7059H179.405C180.345 17.7059 181.107 16.9425 181.107 16.0007V13.9864C181.107 13.0446 180.345 12.2811 179.405 12.2811Z" fill="#E6E8EC"/>
<path d="M188.21 18.0705C189.906 18.0705 191.281 16.6929 191.281 14.9935C191.281 13.2941 189.906 11.9165 188.21 11.9165C186.514 11.9165 185.139 13.2941 185.139 14.9935C185.139 16.6929 186.514 18.0705 188.21 18.0705Z" fill="#E6E8EC"/>
<path d="M256.54 28.6792V366.849C256.542 369.048 256.066 371.221 255.146 373.217C254.225 375.213 252.882 376.984 251.21 378.408C248.466 380.751 244.979 382.037 241.374 382.037H104.346C101.908 382.041 99.5048 381.454 97.342 380.326C96.8339 380.066 96.3419 379.774 95.8689 379.454C93.8094 378.062 92.1225 376.185 90.9563 373.987C89.79 371.789 89.18 369.338 89.1799 366.849V28.6792C89.1798 26.6838 89.572 24.7079 90.3341 22.8643C91.0962 21.0208 92.2133 19.3457 93.6216 17.9347C95.0299 16.5237 96.7018 15.4045 98.5419 14.6409C100.382 13.8773 102.354 13.4844 104.346 13.4845H124.855V16.1209C124.855 19.4391 126.17 22.6214 128.512 24.9678C130.854 27.3141 134.03 28.6322 137.342 28.6323H207.031C210.343 28.6323 213.52 27.3141 215.861 24.9678C218.203 22.6214 219.519 19.4391 219.519 16.1209V13.4845H241.374C243.366 13.4838 245.338 13.8764 247.178 14.6398C249.019 15.4031 250.691 16.5224 252.099 17.9335C253.508 19.3445 254.625 21.0199 255.387 22.8637C256.148 24.7075 256.54 26.6836 256.54 28.6792Z" fill="#3B82F6"/>
<path opacity="0.3" d="M256.54 318.44V366.849C256.542 369.048 256.066 371.221 255.146 373.217C254.225 375.213 252.882 376.984 251.21 378.408C248.466 380.751 244.979 382.037 241.374 382.037H104.346C101.908 382.041 99.5048 381.454 97.342 380.326C96.8339 380.066 96.3419 379.774 95.8689 379.454C93.8094 378.062 92.1225 376.185 90.9563 373.987C89.79 371.789 89.18 369.338 89.1799 366.849V318.46C112.157 297.767 141.96 286.317 172.856 286.313C203.752 286.309 233.557 297.752 256.54 318.44Z" fill="white"/>
<path opacity="0.3" d="M248.391 380.313C246.227 381.452 243.818 382.044 241.374 382.037H104.346C101.908 382.041 99.5048 381.454 97.342 380.326C103.545 365.378 114.028 352.606 127.469 343.621C140.909 334.635 156.704 329.839 172.862 329.838C189.02 329.837 204.816 334.63 218.258 343.613C231.7 352.596 242.185 365.366 248.391 380.313V380.313Z" fill="white"/>
<path opacity="0.3" d="M218.568 381.124C217.259 381.813 215.801 382.172 214.322 382.168H131.403C129.928 382.17 128.474 381.815 127.165 381.132C130.919 372.087 137.262 364.358 145.395 358.921C153.528 353.484 163.086 350.582 172.864 350.581C182.641 350.58 192.2 353.48 200.334 358.916C208.468 364.352 214.813 372.08 218.568 381.124V381.124Z" fill="white"/>
<path d="M207.718 144.401C193.973 144.401 178.888 141.779 167.111 132.93C150.715 120.609 130.515 121.267 116.456 123.988C107.118 125.811 98.0536 128.836 89.4893 132.988L88.8701 131.798C97.5389 127.592 106.714 124.527 116.167 122.678C130.502 119.898 151.117 119.234 167.915 131.856C199.385 155.504 255.735 134.265 256.3 134.048L256.78 135.301C246.213 139.075 235.283 141.74 224.167 143.255C218.716 144 213.221 144.383 207.718 144.401Z" fill="white"/>
<path opacity="0.3" d="M89.1732 132.393C89.1732 132.393 135.374 121.181 167.513 136.532C199.653 151.882 256.566 136.418 256.566 136.418" fill="white"/>
<path opacity="0.3" d="M132.79 149.809C127.209 149.784 121.643 149.227 116.167 148.146C106.714 146.297 97.5389 143.231 88.8701 139.025L89.4893 137.836C98.0536 141.987 107.118 145.012 116.456 146.835C130.514 149.557 150.715 150.214 167.111 137.894C183.895 125.282 207.404 125.318 224.167 127.568C235.283 129.083 246.213 131.749 256.78 135.522L256.3 136.775C255.734 136.558 199.385 115.319 167.915 138.967C156.899 147.245 144.241 149.809 132.79 149.809Z" fill="white"/>
<path opacity="0.3" d="M133.017 144.407C109.827 144.407 89.2337 136.071 88.9247 135.944L89.4348 134.703C89.8931 134.892 135.694 153.419 167.172 134.746C199.194 115.748 256.162 132.706 256.734 132.88L256.345 134.164C255.78 133.992 199.37 117.204 167.854 135.901C157.099 142.281 144.727 144.407 133.017 144.407Z" fill="white"/>
<path opacity="0.3" d="M89.1799 134.292C89.1799 134.292 135.374 149.642 167.513 134.292C199.653 118.941 256.54 132.841 256.54 132.841" fill="white"/>
<path d="M268.464 175.361V194.918C268.464 194.918 270.026 216.822 278.614 227.774C278.614 227.774 292.669 247.722 294.621 243.42L292.217 229.254L284.08 221.516L279.786 197.265L278.614 175.361H268.464Z" fill="#FFB8B8"/>
<path d="M354.742 352.158V366.63L343.03 370.933V354.113L354.742 352.158Z" fill="#FFB8B8"/>
<path d="M330.928 350.593L338.736 368.194L327.805 372.888L325.462 355.678L330.928 350.593Z" fill="#FFB8B8"/>
<path d="M350.448 215.648C350.448 215.648 366.064 356.851 360.208 357.243C354.352 357.634 343.03 365.065 343.03 359.981C343.03 354.896 334.051 288.792 334.051 288.792L325.462 254.763V301.7L334.441 354.896C334.441 354.896 325.853 366.239 319.606 359.589L306.333 307.567C306.333 307.567 288.765 228.556 289.546 222.298C289.546 222.298 329.757 187.877 350.448 215.648Z" fill="#2F2E41"/>
<path d="M347.325 367.412C347.325 367.412 350.448 360.763 357.475 365.065L363.331 372.106C363.331 372.106 378.429 384.633 367.716 387.317C356.673 390.082 350.057 387.14 350.057 387.14C350.057 387.14 348.105 385.967 346.544 385.967C344.982 385.967 341.469 383.229 341.469 382.446C341.469 381.664 342.64 367.803 342.64 367.803C343.082 367.588 343.579 367.509 344.066 367.579C344.553 367.649 345.008 367.863 345.373 368.195C346.544 369.368 347.325 367.412 347.325 367.412Z" fill="#2F2E41"/>
<path d="M324.291 365.065C324.291 365.065 331.709 359.198 335.222 365.848C335.222 365.848 337.435 366.63 337.695 365.848C337.955 365.065 339.907 364.674 339.907 368.977C339.907 373.279 342.027 384.011 340.075 384.402C338.123 384.793 336.171 385.967 336.561 387.531C336.952 389.096 334.442 389.316 325.462 388.925C316.483 388.534 316.093 385.014 316.093 385.014C316.093 385.014 316.093 379.929 318.435 377.191C320.778 374.453 324.291 365.065 324.291 365.065Z" fill="#2F2E41"/>
<path d="M309.846 108.866C309.846 108.866 307.894 123.338 320.387 128.423C332.88 133.508 292.669 150.327 288.765 140.549C284.861 130.77 289.546 127.641 289.546 127.641C289.546 127.641 293.45 123.73 289.936 113.169L309.846 108.866Z" fill="#FFB8B8"/>
<path d="M297.354 119.036C306.841 119.036 314.531 111.331 314.531 101.826C314.531 92.3205 306.841 84.6152 297.354 84.6152C287.867 84.6152 280.176 92.3205 280.176 101.826C280.176 111.331 287.867 119.036 297.354 119.036Z" fill="#FFB8B8"/>
<path d="M317.264 133.117C317.264 133.117 305.552 139.375 294.231 134.682C282.909 129.988 283.299 150.327 283.299 150.327L289.155 165.582L329.757 161.671L327.024 138.202L317.264 133.117Z" fill="#F2F2F2"/>
<path d="M311.445 119.733C313.525 120.175 315.478 121.081 317.161 122.382C318.844 123.683 320.214 125.347 321.168 127.25L339.907 133.117L344.592 139.766L339.126 187.877C339.126 187.877 349.277 197.656 349.277 203.132C349.277 208.608 361.769 227.383 355.523 225.036C349.277 222.689 337.955 214.475 337.955 214.475C337.955 214.475 309.456 215.648 300.477 223.471C291.498 231.294 287.984 228.947 287.984 228.947C287.984 228.947 278.615 188.268 278.224 182.01C277.834 175.752 266.903 138.202 266.903 138.202L286.423 127.25L291.394 121.598L305.162 143.678L317.654 128.423C317.654 128.423 311.482 123.56 311.445 119.733Z" fill="#3F3D56"/>
<path d="M350.448 169.885L352.79 182.401C352.79 182.401 363.331 221.516 361.769 234.814C361.769 234.814 362.941 264.541 356.304 261.021C349.667 257.501 353.181 235.988 353.181 235.988L343.811 197.265L338.736 174.578L350.448 169.885Z" fill="#FFB8B8"/>
<path d="M340.688 137.42L344.592 139.766C344.592 139.766 359.427 170.667 355.913 173.014C352.4 175.361 337.174 180.445 337.174 180.445L340.688 137.42Z" fill="#3F3D56"/>
<path d="M276.272 138.202L267.097 138.006L264.951 141.722L267.683 179.663L281.738 182.792L276.272 138.202Z" fill="#3F3D56"/>
<path d="M311.342 87.27L314.438 86.142C314.438 86.142 307.964 79.6559 298.957 80.2199L301.49 77.6818C301.49 77.6818 295.298 75.4258 289.668 81.3479C286.709 84.461 283.285 88.1203 281.151 92.2425H277.835L279.219 95.0155L274.375 97.7886L279.347 97.2905C278.876 99.6846 279.038 102.16 279.817 104.472L280.943 107.574C280.943 107.574 285.447 98.5502 285.447 97.4222V100.242C285.447 100.242 288.543 97.7042 288.543 96.0122L290.231 97.9862L291.076 94.8841L301.49 97.9862L299.801 95.4482L306.275 96.2942L303.742 93.1921C303.742 93.1921 311.06 96.8582 311.342 99.9603C311.623 103.062 313.555 107.106 313.555 107.106L315.898 104.368C315.898 104.368 319.504 91.5001 311.342 87.27Z" fill="#2F2E41"/>
<path d="M311.799 105.541C312.553 105.541 313.165 103.965 313.165 102.021C313.165 100.077 312.553 98.5008 311.799 98.5008C311.044 98.5008 310.432 100.077 310.432 102.021C310.432 103.965 311.044 105.541 311.799 105.541Z" fill="#FFB8B8"/>
<path d="M27.877 361.457C36.1988 376.92 53.8605 383.558 53.8605 383.558C53.8605 383.558 58.03 365.126 49.7083 349.663C41.3865 334.201 23.7248 327.563 23.7248 327.563C23.7248 327.563 19.5553 345.995 27.877 361.457Z" fill="#3F3D56"/>
<path d="M33.5969 356.37C48.621 365.427 54.4073 383.415 54.4073 383.415C54.4073 383.415 35.8346 386.72 20.8104 377.664C5.78628 368.607 0 350.619 0 350.619C0 350.619 18.5727 347.314 33.5969 356.37Z" fill="#3B82F6"/>
<path opacity="0.3" d="M89.1799 132.393C89.1799 132.393 135.374 108.242 167.513 132.393C199.653 156.544 256.54 134.675 256.54 134.675" fill="white"/>
<path d="M173.037 378.142C177.105 378.142 180.402 374.839 180.402 370.763C180.402 366.688 177.105 363.384 173.037 363.384C168.969 363.384 165.672 366.688 165.672 370.763C165.672 374.839 168.969 378.142 173.037 378.142Z" fill="white"/>
</svg>
